<svg id="Layer_1" data-name="Layer 1" xmlns="http://www.w3.org/2000/svg" xmlns:xlink="http://www.w3.org/1999/xlink" viewBox="0 0 300 101.21"><defs><style>.cls-1{fill:#4563ac;}.cls-2{fill:url(#linear-gradient);}.cls-3{fill:#dc153d;}</style><linearGradient id="linear-gradient" x1="161.2" y1="126.44" x2="161.2" y2="27.87" gradientUnits="userSpaceOnUse"><stop offset="0" stop-color="#4563ac"/><stop offset="1" stop-color="#dc153d"/></linearGradient></defs><path class="cls-1" d="M39,125.5c-10,0-16.77-7-16.77-17.58v-37c0-28,22.86-42.05,45.57-42.05s45.44,14.06,45.44,42.05V125.5h-3c-10,0-16.77-7-16.77-17.58v-7H42V125.5ZM93.49,84V70.87c0-15-12.84-22.58-25.69-22.58S42,55.86,42,70.87V84Z" transform="translate(-22.23 -27.87)"/><path class="cls-2" d="M202.91,126.44h-9.06a19.11,19.11,0,0,1-9.33-2.36,19.65,19.65,0,0,1-7-6.43L139.23,59.51v66.93a19.6,19.6,0,0,1-19.74-19.6v-79h9a18.73,18.73,0,0,1,9.33,2.44A21.35,21.35,0,0,1,145,36.8L183.3,95.48V47.61a19.12,19.12,0,0,1,5.75-13.92,18.77,18.77,0,0,1,13.86-5.82Z" transform="translate(-22.23 -27.87)"/><path class="cls-3" d="M221.43,42.92v8.39h11.45a4.7,4.7,0,0,1-1.47,3.49,4.8,4.8,0,0,1-3.5,1.44h-6.48v8.7h12.82v.22a4.75,4.75,0,0,1-1.46,3.53,4.84,4.84,0,0,1-3.51,1.44h-9.41a4.74,4.74,0,0,1-3.48-1.44,4.81,4.81,0,0,1-1.45-3.53V42.75a4.81,4.81,0,0,1,1.45-3.53,4.75,4.75,0,0,1,3.48-1.45h14.38V38a5,5,0,0,1-5,5Z" transform="translate(-22.23 -27.87)"/><path class="cls-3" d="M262.88,70.09a10,10,0,0,1-4.77-1.2,10.08,10.08,0,0,1-3.66-3.33l-4.26-6.48-6.48,11h-4.22a1.64,1.64,0,0,1-1.55-.89,1.66,1.66,0,0,1,0-1.77l8.52-13.85-8.25-12.52A2.11,2.11,0,0,1,240,37.77h3.69l7.14,10.79,3.64-6.17a9.24,9.24,0,0,1,2.11-2.46,9.42,9.42,0,0,1,2.8-1.6,9.24,9.24,0,0,1,3.17-.56h2L254.49,54,265.1,70.09Z" transform="translate(-22.23 -27.87)"/><path class="cls-3" d="M274.25,37.51v19q0,3.82,1.66,5.71a7.08,7.08,0,0,0,9.61,0q1.69-1.89,1.69-5.71V43.9a6.35,6.35,0,0,1,6.39-6.39v19A15.89,15.89,0,0,1,291.94,64a10.84,10.84,0,0,1-4.62,4.62,14.41,14.41,0,0,1-6.73,1.53,12.57,12.57,0,0,1-9.3-3.49q-3.48-3.48-3.48-10.23V43.9a6.15,6.15,0,0,1,1.89-4.53A6.23,6.23,0,0,1,274.25,37.51Z" transform="translate(-22.23 -27.87)"/><path class="cls-3" d="M322.23,61A8.94,8.94,0,0,1,321,65.52a8.72,8.72,0,0,1-3.66,3.35,12.76,12.76,0,0,1-5.9,1.26A15.26,15.26,0,0,1,305.3,69,10.58,10.58,0,0,1,301,65.58a9.53,9.53,0,0,1-1.86-5.12h5.32a2,2,0,0,1,1.13.35,1.77,1.77,0,0,1,.69.93,5.44,5.44,0,0,0,1.33,2,5,5,0,0,0,3.6,1.29A4.14,4.14,0,0,0,314.24,64a4.06,4.06,0,0,0,.2-5.26,6.2,6.2,0,0,0-2.2-1.59,38.73,38.73,0,0,0-3.64-1.36,36.77,36.77,0,0,1-4.94-2,9,9,0,0,1-3.29-2.86A8.23,8.23,0,0,1,299,46a7.94,7.94,0,0,1,3-6.57,12.39,12.39,0,0,1,8-2.4,12.67,12.67,0,0,1,8.17,2.46,9.27,9.27,0,0,1,3.46,6.6h-4.48A3.48,3.48,0,0,1,314,44.21a5.68,5.68,0,0,0-.8-1,4.58,4.58,0,0,0-3.24-1.11A4.31,4.31,0,0,0,307,43a3.88,3.88,0,0,0-.25,5.11,6.57,6.57,0,0,0,2.16,1.53A34,34,0,0,0,312.47,51,44.44,44.44,0,0,1,317.55,53a9.28,9.28,0,0,1,3.31,2.89A8.43,8.43,0,0,1,322.23,61Z" transform="translate(-22.23 -27.87)"/><path class="cls-1" d="M222.48,86.56a21.71,21.71,0,0,1,20.9,0A19.47,19.47,0,0,1,250.76,94a23.12,23.12,0,0,1,0,21.72,19.39,19.39,0,0,1-7.38,7.49,21.71,21.71,0,0,1-20.9,0,19.46,19.46,0,0,1-7.38-7.49,23.19,23.19,0,0,1,0-21.72A19.54,19.54,0,0,1,222.48,86.56Zm16.76,6.51a13.13,13.13,0,0,0-12.67,0,11.07,11.07,0,0,0-4.26,4.68,17.46,17.46,0,0,0,0,14.25,11.07,11.07,0,0,0,4.26,4.68,13.13,13.13,0,0,0,12.67,0,11.24,11.24,0,0,0,4.28-4.68,17.15,17.15,0,0,0,0-14.25A11.24,11.24,0,0,0,239.24,93.07Z" transform="translate(-22.23 -27.87)"/><path class="cls-1" d="M304.62,85.35v40.57a7.91,7.91,0,0,1-5.77-2.37,7.77,7.77,0,0,1-2.4-5.75V97.63L286,125.92h-1.41a8.11,8.11,0,0,1-4.64-1.44,7.86,7.86,0,0,1-3-3.86l-8.39-22.87v28.17h-.06a7.9,7.9,0,0,1-5.77-2.37,7.77,7.77,0,0,1-2.4-5.75V85.35h5.58a6.55,6.55,0,0,1,1.94.28,5.77,5.77,0,0,1,1.69.82,7.21,7.21,0,0,1,1.38,1.27,5.27,5.27,0,0,1,1,1.63l10.7,26.54,10.09-25.41a7.88,7.88,0,0,1,3-3.72,8,8,0,0,1,4.57-1.41Z" transform="translate(-22.23 -27.87)"/><path class="cls-1" d="M322.23,81.79v32.9h-9.86V90.23c0-5.07,3.24-8.44,8-8.44Zm0,36.89v10.4h-9.86v-2.23c0-5.13,3.24-8.17,8-8.17Z" transform="translate(-22.23 -27.87)"/></svg>