<svg xmlns="http://www.w3.org/2000/svg" viewBox="0 0 387.85 373.44"><defs><style>.cls-1{opacity:0.4;}.cls-2{fill:#d1d0f4;}.cls-3{fill:#a9b7de;}.cls-4{fill:#eb8500;}.cls-5{fill:#ffb900;}.cls-6{fill:#fff;}.cls-7{fill:#0958d1;}.cls-8{fill:#fbfffd;}.cls-9{fill:#ff4b4a;}</style></defs><g id="OBJECTS"><g class="cls-1"><path class="cls-2" d="M227.76,96.64S157.4,97.45,145,149c-11.58,48.32,31.62,73.72-19.88,108.12S101.23,414.23,198,387.28s84.7-96.15,156.62-103.15C462,273.69,437.54,86.3,227.76,96.64Z" transform="translate(-62.14 -45.95)"/></g><path class="cls-3" d="M419.5,190.39q1.69,6.54,2.76,13.22c.09.54.91.31.83-.23a133.51,133.51,0,0,0-6-23.77,84.13,84.13,0,0,0-10.52-21,44.91,44.91,0,0,0-8-8.66c-.43-.34-1,.26-.61.61h0c5.65,4.6,9.82,10.79,13.13,17.23" transform="translate(-62.14 -45.95)"/><path class="cls-3" d="M107.09,258.08a86.1,86.1,0,0,0-15.22,31,89.39,89.39,0,0,0-2.19,34.5,83.42,83.42,0,0,0,4.87,19.11c.2.52,1,.3.85-.23a85.26,85.26,0,0,1-5.56-33.72,88.7,88.7,0,0,1,7.81-33.35,83.35,83.35,0,0,1,10.06-16.67c.34-.44-.27-1.06-.62-.62Z" transform="translate(-62.14 -45.95)"/><path class="cls-3" d="M287.39,337.56A133.47,133.47,0,0,1,225.29,386c-.53.2-.3,1,.23.85a134.8,134.8,0,0,0,51.54-35A133.2,133.2,0,0,0,288.15,338c.32-.46-.44-.9-.76-.44Z" transform="translate(-62.14 -45.95)"/><path class="cls-4" d="M107.55,165.57a18,18,0,1,0,18,18A18,18,0,0,0,107.55,165.57Zm0,24.25-6.26-6.26,6.26-6.26,6.26,6.26Z" transform="translate(-62.14 -45.95)"/><rect class="cls-4" x="45.62" y="119.62" width="4.11" height="3.3"/><rect class="cls-4" x="45.49" y="152.31" width="4.24" height="3.3"/><path class="cls-5" d="M111.65,165.57a18,18,0,1,0,18,18A18,18,0,0,0,111.65,165.57Zm0,24.25-6.26-6.26,6.26-6.26,6.27,6.26Z" transform="translate(-62.14 -45.95)"/><path class="cls-4" d="M111.65,199.19a15.63,15.63,0,1,1,15.63-15.63A15.64,15.64,0,0,1,111.65,199.19Zm0-30.47a14.84,14.84,0,1,0,14.85,14.84A14.86,14.86,0,0,0,111.65,168.72Z" transform="translate(-62.14 -45.95)"/><path class="cls-4" d="M287.27,368.37a18,18,0,1,0,18,18A18,18,0,0,0,287.27,368.37Zm0,24.25L281,386.36l6.26-6.26,6.27,6.26Z" transform="translate(-62.14 -45.95)"/><rect class="cls-4" x="225.34" y="322.42" width="4.11" height="3.3"/><rect class="cls-4" x="225.21" y="355.1" width="4.24" height="3.3"/><path class="cls-5" d="M291.38,368.37a18,18,0,1,0,18,18A18,18,0,0,0,291.38,368.37Zm0,24.25-6.27-6.26,6.27-6.26,6.26,6.26Z" transform="translate(-62.14 -45.95)"/><path class="cls-4" d="M291.38,402A15.63,15.63,0,1,1,307,386.36,15.65,15.65,0,0,1,291.38,402Zm0-30.47a14.84,14.84,0,1,0,14.84,14.84A14.85,14.85,0,0,0,291.38,371.52Z" transform="translate(-62.14 -45.95)"/><path class="cls-2" d="M232.18,50.42l-.55,59.65s-68.32-2.66-87.74,37.19V77.66S143.89,52.78,232.18,50.42Z" transform="translate(-62.14 -45.95)"/><path class="cls-6" d="M225.22,64.78a1,1,0,0,1-1,.9,136.33,136.33,0,0,0-26.89,1.48c-13.79,2.09-33.22,7.29-47.48,20.15a46.75,46.75,0,0,0-5.93,6.44V90.64a47.24,47.24,0,0,1,4.62-4.77,76.54,76.54,0,0,1,23.84-14.25,116.63,116.63,0,0,1,24.7-6.39,137.91,137.91,0,0,1,27.27-1.49A1,1,0,0,1,225.22,64.78Z" transform="translate(-62.14 -45.95)"/><path class="cls-6" d="M225.22,76.25a1,1,0,0,1-1,.91,136.27,136.27,0,0,0-27,1.68c-13.67,2.21-32.65,7.58-45.44,20.6a55.05,55.05,0,0,0-7.87,10.13V106a58.21,58.21,0,0,1,6.48-7.89,66.63,66.63,0,0,1,22.37-14.54,109.31,109.31,0,0,1,24.19-6.62,138,138,0,0,1,27.39-1.69A1,1,0,0,1,225.22,76.25Z" transform="translate(-62.14 -45.95)"/><path class="cls-6" d="M225.23,86.78a1,1,0,0,1-1,.94,136.89,136.89,0,0,0-26.79,2.18C183.84,92.34,165,98,152.17,111a57.15,57.15,0,0,0-8.28,10.74v-3.66a59.76,59.76,0,0,1,6.89-8.44A68.9,68.9,0,0,1,173.07,95a112.31,112.31,0,0,1,24.05-7,140.46,140.46,0,0,1,27.17-2.21A1,1,0,0,1,225.23,86.78Z" transform="translate(-62.14 -45.95)"/><path class="cls-6" d="M224.83,97.86a1,1,0,0,1-1,1,137.81,137.81,0,0,0-26.74,2.8c-13.52,2.75-32.26,8.81-44.75,22.13a56.79,56.79,0,0,0-8,10.92l-.08-3.65a58.41,58.41,0,0,1,6.7-8.6,68.45,68.45,0,0,1,21.95-15.2,111.11,111.11,0,0,1,23.88-7.51,139.44,139.44,0,0,1,27.12-2.83A1,1,0,0,1,224.83,97.86Z" transform="translate(-62.14 -45.95)"/><path class="cls-3" d="M163.32,95.85v69.74s-18.44-4.62-19.43-19.06V77.29S149.87,93.23,163.32,95.85Z" transform="translate(-62.14 -45.95)"/><path class="cls-3" d="M100.41,142.42a.87.87,0,0,1-.41-.11.82.82,0,0,1-.39-.69V123.05a.82.82,0,0,1,.43-.71l6.92-3.62a.81.81,0,0,1,1.18.71V138a.81.81,0,0,1-.43.71l-6.92,3.62A.85.85,0,0,1,100.41,142.42Zm.81-18.88V140.3l5.31-2.79V120.76Z" transform="translate(-62.14 -45.95)"/><path class="cls-3" d="M125.9,138.8H107.34a.8.8,0,0,1-.81-.8V119.43a.8.8,0,0,1,.81-.8H125.9a.8.8,0,0,1,.81.8V138A.8.8,0,0,1,125.9,138.8Zm-17.76-1.6h17v-17h-17Z" transform="translate(-62.14 -45.95)"/><path class="cls-3" d="M119,142.42H100.41a.79.79,0,0,1-.77-.61.8.8,0,0,1,.4-.9l6.92-3.62a.85.85,0,0,1,.38-.09H125.9a.8.8,0,0,1,.38,1.51l-6.93,3.62A.78.78,0,0,1,119,142.42Zm-15.31-1.6h15.11l3.86-2H107.53Z" transform="translate(-62.14 -45.95)"/><path class="cls-3" d="M419,277.85,412,274.23a.81.81,0,0,1-.43-.71V255a.81.81,0,0,1,1.18-.71l6.92,3.63a.8.8,0,0,1,.43.71v18.56a.82.82,0,0,1-.39.69.75.75,0,0,1-.41.12A.69.69,0,0,1,419,277.85Zm-5.75-21.57V273l5.32,2.78V259.06Z" transform="translate(-62.14 -45.95)"/><path class="cls-3" d="M393.05,273.52V255a.8.8,0,0,1,.8-.8h18.57a.8.8,0,0,1,.8.8v18.57a.8.8,0,0,1-.8.8H393.85A.8.8,0,0,1,393.05,273.52Zm18.56-17.76h-17v17h17Z" transform="translate(-62.14 -45.95)"/><path class="cls-3" d="M400.4,277.85l-6.92-3.62a.79.79,0,0,1-.41-.9.8.8,0,0,1,.78-.61h18.57a.81.81,0,0,1,.37.09l6.92,3.62a.81.81,0,0,1-.37,1.52H400.77A.79.79,0,0,1,400.4,277.85Zm11.82-3.53H397.11l3.86,2h15.11Z" transform="translate(-62.14 -45.95)"/><path class="cls-7" d="M297.26,83.17l4.9,10.41-12.33-4.44a22.8,22.8,0,1,1,7.43-6Z" transform="translate(-62.14 -45.95)"/><path class="cls-5" d="M291.65,68.13a11.88,11.88,0,0,1-.44,3.23,3.71,3.71,0,0,1-.12.41,12.1,12.1,0,0,1-7.37,7.71l-.43.15h0a12.17,12.17,0,0,1-6.92.15l-.44-.13a12.11,12.11,0,0,1-5.26-3.35l-.33-.38a12,12,0,0,1-2.74-6.16l-.06-.52h0c0-.36-.05-.74-.05-1.11a12.07,12.07,0,0,1,6.69-10.81l.42-.2a12,12,0,0,1,5-1.07h.48l.42,0a12,12,0,0,1,3,.62,3.39,3.39,0,0,1,.41.15,12.11,12.11,0,0,1,7.26,7.82c0,.13.07.26.11.4s.11.46.16.7.05.28.08.42h0A12.26,12.26,0,0,1,291.65,68.13Z" transform="translate(-62.14 -45.95)"/><path class="cls-4" d="M274.6,57.12a14.55,14.55,0,0,1-1.85,6.28,27.43,27.43,0,0,1-5.15,6.36l-.06-.52h0a27.26,27.26,0,0,0,4.62-5.65,14.35,14.35,0,0,0,2-6.27Z" transform="translate(-62.14 -45.95)"/><path class="cls-4" d="M291.26,65.07a7.46,7.46,0,0,1-6.13-2.86,8.22,8.22,0,0,1-1.65-5.51,3.39,3.39,0,0,1,.41.15,7.56,7.56,0,0,0,3.23,6.68,7.2,7.2,0,0,0,4,1.14C291.19,64.8,291.22,64.93,291.26,65.07Z" transform="translate(-62.14 -45.95)"/><path class="cls-4" d="M291.5,66.19a9,9,0,0,0-1.93-.33,13.49,13.49,0,0,0-11.38,6.06,11.51,11.51,0,0,0-1.82,7.86l-.44-.13a11.75,11.75,0,0,1,0-2.78,13.25,13.25,0,0,1,7.89-10.21,12.14,12.14,0,0,1,7.6-.89C291.45,65.91,291.47,66.05,291.5,66.19Z" transform="translate(-62.14 -45.95)"/><path class="cls-4" d="M291.21,71.36a3.71,3.71,0,0,1-.12.41,7.21,7.21,0,0,0-5.71,3.11,9.67,9.67,0,0,0-1.66,4.6l-.43.15a10,10,0,0,1,1.93-5.22A7.56,7.56,0,0,1,291.21,71.36Z" transform="translate(-62.14 -45.95)"/><path class="cls-4" d="M280.42,58.23a14.94,14.94,0,0,1-2.1,6.43,51.76,51.76,0,0,1-4.55,5.6,14.46,14.46,0,0,0-3.1,6l-.33-.38a13.88,13.88,0,0,1,2.39-5c1.48-2,3.31-3.67,4.73-5.69a14.77,14.77,0,0,0,2.59-9.16l.42,0A15.4,15.4,0,0,1,280.42,58.23Z" transform="translate(-62.14 -45.95)"/><path class="cls-8" d="M290.69,63.41q.84,0,1.68.06c.52,0,1.46,0,1.83.45s-.47,1.48-.86,1.83a14.52,14.52,0,0,1-1.74,1.33c-.82.55-1.68,1.06-2.51,1.55a49.37,49.37,0,0,1-4.6,2.45,50,50,0,0,1-10,3.44c-1.52.36-3.06.64-4.62.85l-.64.08c-1.3.16-3.83.56-4.37-1.14-.26-.79.43-1.5,1-2s1.26-1.11,1.92-1.62l-.26-1.87-.44.34c-1.4,1.08-3.5,2.41-3.84,4.29s1.32,3.4,3.08,3.7a11.14,11.14,0,0,0,3.31-.1l1.58-.22,1.56-.26a52.83,52.83,0,0,0,12-3.82,50.67,50.67,0,0,0,5.54-3c.43-.26.86-.54,1.29-.82s.93-.61,1.38-.93a10,10,0,0,0,2.16-1.84,2.85,2.85,0,0,0,.66-2.72,2.66,2.66,0,0,0-2.24-1.57,20.43,20.43,0,0,0-3.76-.19Z" transform="translate(-62.14 -45.95)"/><g class="cls-1"><path class="cls-2" d="M437.6,114.54c-.47-3.26-2.18-10.52-8.4-13.15-8.11-3.44-11.68,1.91-22.72,7.42s-12.66-2.68-20.78-4.3c-7.28-1.46-15.77,8-17.45,10Z" transform="translate(-62.14 -45.95)"/></g><g class="cls-1"><path class="cls-2" d="M131.49,225.41c-.46-3.26-2.18-10.51-8.39-13.15-8.12-3.43-11.69,1.91-22.73,7.43S87.71,217,79.59,215.38c-7.28-1.46-15.77,8.05-17.45,10Z" transform="translate(-62.14 -45.95)"/></g><rect class="cls-5" x="393.22" y="137.36" width="41.56" height="28.71" transform="translate(-62.36 -45.35) rotate(-0.08)"/><polygon class="cls-4" points="331.06 91.44 331.06 93.28 351.87 111.67 372.63 93.22 372.63 91.38 351.87 109.89 331.06 91.44"/><polygon class="cls-4" points="355.87 106.26 371.46 120.09 372.67 120.09 372.67 119.36 356.76 105.25 355.87 106.26"/><polygon class="cls-4" points="331.1 119.52 331.1 120.15 332.42 120.15 347.97 106.27 347.07 105.27 331.1 119.52"/><polygon class="cls-5" points="372.63 91.38 351.87 109.89 331.06 91.44 372.63 91.38"/><rect class="cls-9" x="361.54" y="83.7" width="14.58" height="14.58" rx="1.66"/><path class="cls-6" d="M434.63,138.58v2.1h-6.46V139l2.91-2.69c.55-.52.64-.83.64-1.11s-.27-.63-.79-.63a1.3,1.3,0,0,0-1.18.75l-2.06-1a3.72,3.72,0,0,1,3.5-1.86c1.91,0,3.26,1,3.26,2.52a3.18,3.18,0,0,1-1.39,2.57l-1.15,1.05Z" transform="translate(-62.14 -45.95)"/><rect class="cls-7" x="25.73" y="201.28" width="29.01" height="29.01" rx="2.74"/><path class="cls-6" d="M110.58,255.76c0-.2-.1-.4-.14-.6a4.49,4.49,0,0,0-1-1.88,4.64,4.64,0,0,0-1.18-1,1.35,1.35,0,0,0-1.76.35c-.81,1-1.62,1.95-2.41,2.94a1.4,1.4,0,0,0,.19,2c.44.38.9.74,1.35,1.11a1.2,1.2,0,0,0,.17.11,12.93,12.93,0,0,1-5.5,6.72l-1-.81-.51-.42a1.4,1.4,0,0,0-1.68-.09,2.08,2.08,0,0,0-.45.44c-.73.89-1.45,1.78-2.18,2.66a1.8,1.8,0,0,0-.43.94l0,.4a3.2,3.2,0,0,0,.39.65A4.93,4.93,0,0,0,96,270.33a4.15,4.15,0,0,0,2.07.42,9.36,9.36,0,0,0,1.4-.27,11.43,11.43,0,0,0,3.28-1.58,17.48,17.48,0,0,0,2.75-2.33,28.61,28.61,0,0,0,3.05-3.81,13.79,13.79,0,0,0,1.74-3.42,7.2,7.2,0,0,0,.38-1.9c0-.26,0-.52,0-.78Z" transform="translate(-62.14 -45.95)"/><rect class="cls-9" x="20.39" y="191.75" width="16.67" height="16.67" rx="1.66"/><path class="cls-6" d="M94,247.22c0,1.33-1,2.61-3.4,2.61a6.22,6.22,0,0,1-2.92-.67l.85-1.84a4,4,0,0,0,2,.54c.56,0,1-.2,1-.58s-.23-.53-1.13-.53H88.23l.37-4.51h4.93v1.89H90.66l-.06.73H91C93.18,244.86,94,245.91,94,247.22Z" transform="translate(-62.14 -45.95)"/><rect class="cls-2" x="237.73" y="244.07" width="114.12" height="68.19" rx="5.43"/><path class="cls-6" d="M356.92,341.28a19.5,19.5,0,1,1,19.5-19.49A19.51,19.51,0,0,1,356.92,341.28Zm-7.21-28v17.06a2.3,2.3,0,0,0,3.54,1.93l14.15-9.1a2.3,2.3,0,0,0-.11-3.94l-14.15-8A2.3,2.3,0,0,0,349.71,313.26Zm7.21-10.38a18.91,18.91,0,1,0,18.91,18.91A18.93,18.93,0,0,0,356.92,302.88Z" transform="translate(-62.14 -45.95)"/><rect class="cls-3" x="247.65" y="302.23" width="94.28" height="1.64"/><rect class="cls-6" x="247.65" y="302.23" width="59.88" height="1.64"/><path class="cls-6" d="M372.31,348.62a2.7,2.7,0,1,1-2.7-2.7A2.7,2.7,0,0,1,372.31,348.62Z" transform="translate(-62.14 -45.95)"/><path class="cls-3" d="M318.05,393.62h-.14c-.75-.13-1.16-.22-1.18-.23a.78.78,0,0,1,.34-1.52s.4.09,1.11.22a.78.78,0,0,1,.64.9A.79.79,0,0,1,318.05,393.62Z" transform="translate(-62.14 -45.95)"/><path class="cls-3" d="M328.79,394.47a.78.78,0,0,1,0-1.55c.74,0,1.48,0,2.21-.05a.78.78,0,1,1,.06,1.55c-.75,0-1.51.05-2.26.05Zm-4.27-.12h0c-.75,0-1.51-.1-2.25-.17a.78.78,0,1,1,.14-1.55c.73.07,1.47.12,2.2.17a.78.78,0,0,1,0,1.55Zm10.78-.24a.78.78,0,0,1-.09-1.56c.74-.08,1.47-.17,2.19-.28a.78.78,0,1,1,.23,1.54c-.74.11-1.49.21-2.24.29Zm6.42-1.1a.79.79,0,0,1-.76-.6.77.77,0,0,1,.58-.93c.72-.17,1.43-.36,2.13-.55a.77.77,0,0,1,1,.54.77.77,0,0,1-.54,1c-.72.2-1.45.39-2.19.56A.55.55,0,0,1,341.72,393Zm6.22-1.9a.78.78,0,0,1-.28-1.51c.69-.26,1.37-.55,2-.84a.78.78,0,1,1,.63,1.42c-.68.31-1.39.6-2.1.87A.67.67,0,0,1,347.94,391.11Zm5.88-2.81a.8.8,0,0,1-.68-.38.78.78,0,0,1,.29-1.07c.63-.36,1.25-.75,1.86-1.15a.78.78,0,0,1,1.08.22.79.79,0,0,1-.23,1.08c-.63.42-1.28.82-1.93,1.2A.81.81,0,0,1,353.82,388.3Zm5.33-3.72a.79.79,0,0,1-.6-.28.78.78,0,0,1,.1-1.1c.56-.46,1.11-.95,1.63-1.45a.79.79,0,0,1,1.11,0,.78.78,0,0,1,0,1.1c-.55.52-1.12,1-1.7,1.51A.81.81,0,0,1,359.15,384.58Zm4.61-4.58a.73.73,0,0,1-.5-.19.78.78,0,0,1-.09-1.1c.46-.55.92-1.12,1.36-1.7a.78.78,0,1,1,1.24.93c-.45.61-.93,1.21-1.42,1.78A.77.77,0,0,1,363.76,380Zm3.78-5.29a.72.72,0,0,1-.4-.12.77.77,0,0,1-.27-1.06c.37-.62.73-1.27,1.08-1.91a.78.78,0,1,1,1.37.73c-.35.67-.73,1.34-1.11,2A.8.8,0,0,1,367.54,374.71Z" transform="translate(-62.14 -45.95)"/><path class="cls-3" d="M370.47,368.88a.8.8,0,0,1-.3-.06.78.78,0,0,1-.42-1c.15-.35.3-.71.43-1.06a.78.78,0,0,1,1-.44.79.79,0,0,1,.45,1l-.45,1.1A.79.79,0,0,1,370.47,368.88Z" transform="translate(-62.14 -45.95)"/><path class="cls-3" d="M85.57,156.62a.76.76,0,0,1-.67-.4s-.12-.2-.27-.46A.78.78,0,0,1,86,155c.15.26.24.41.25.44a.8.8,0,0,1,.11.4A.78.78,0,0,1,85.57,156.62Zm-2.26-4.47a.77.77,0,0,1-.71-.46c-.32-.7-.64-1.44-.94-2.17a.78.78,0,1,1,1.44-.59c.29.72.6,1.43.92,2.12a.79.79,0,0,1-.39,1A.77.77,0,0,1,83.31,152.15Zm-2.5-6.35a.77.77,0,0,1-.73-.53c-.25-.74-.49-1.5-.72-2.25a.78.78,0,0,1,1.5-.45c.21.74.45,1.48.69,2.21a.76.76,0,0,1-.49,1A.69.69,0,0,1,80.81,145.8ZM79,139.24a.78.78,0,0,1-.75-.61c-.18-.78-.33-1.56-.47-2.33a.78.78,0,0,1,1.53-.27c.14.74.29,1.51.46,2.26a.79.79,0,0,1-.6.93Zm-1.08-6.73a.78.78,0,0,1-.77-.7c-.08-.79-.14-1.59-.18-2.37a.78.78,0,0,1,1.56-.08c0,.76.09,1.53.17,2.29a.79.79,0,0,1-.7.86Zm-.21-6.81h0a.79.79,0,0,1-.75-.81c0-.79.09-1.59.16-2.37a.78.78,0,1,1,1.55.14c-.07.76-.12,1.53-.15,2.29A.78.78,0,0,1,77.69,125.7Zm.79-6.76-.15,0a.77.77,0,0,1-.61-.91c.15-.78.33-1.56.53-2.32a.77.77,0,1,1,1.5.39c-.19.73-.36,1.48-.51,2.23A.77.77,0,0,1,78.48,118.94Zm1.88-6.54a.71.71,0,0,1-.28-.06.78.78,0,0,1-.45-1c.28-.74.59-1.48.92-2.2a.77.77,0,0,1,1-.39.79.79,0,0,1,.39,1c-.32.69-.61,1.4-.88,2.11A.8.8,0,0,1,80.36,112.4Zm3-6.13a.79.79,0,0,1-.39-.11.78.78,0,0,1-.28-1.07c.41-.67.84-1.35,1.28-2a.78.78,0,1,1,1.29.87c-.43.64-.84,1.29-1.23,1.94A.78.78,0,0,1,83.32,106.27Zm4-5.53a.78.78,0,0,1-.59-1.29c.52-.6,1.06-1.19,1.62-1.75a.78.78,0,0,1,1.11,1.09q-.81.81-1.56,1.68A.76.76,0,0,1,87.29,100.74Zm4.93-4.69a.79.79,0,0,1-.62-.3.78.78,0,0,1,.14-1.09c.62-.48,1.27-1,1.93-1.4a.78.78,0,0,1,1.08.2.79.79,0,0,1-.2,1.09c-.63.42-1.26.88-1.85,1.34A.77.77,0,0,1,92.22,96.05ZM98,92.4a.78.78,0,0,1-.36-1.48c.69-.36,1.42-.7,2.14-1a.78.78,0,0,1,.64,1.43c-.7.31-1.4.64-2.07,1A.73.73,0,0,1,98,92.4Zm6.28-2.63a.77.77,0,0,1-.24-1.51c.74-.25,1.5-.48,2.27-.69a.78.78,0,1,1,.41,1.5c-.74.21-1.48.43-2.2.67A1,1,0,0,1,104.24,89.77Zm6.6-1.67a.78.78,0,0,1-.14-1.54c.77-.14,1.55-.27,2.34-.38a.77.77,0,0,1,.88.66.78.78,0,0,1-.66.88c-.77.11-1.53.23-2.28.37Zm22.68,0-.15,0s-.84-.17-2.26-.36a.78.78,0,1,1,.21-1.54c1.48.19,2.32.37,2.36.37a.78.78,0,0,1-.16,1.55Zm-15.92-.79a.78.78,0,0,1-.77-.73.77.77,0,0,1,.72-.83c.78,0,1.57-.09,2.36-.12a.78.78,0,0,1,.06,1.56c-.77,0-1.55.06-2.31.12Zm9.16,0h-.05c-.77,0-1.55-.08-2.31-.11a.78.78,0,1,1,0-1.55c.79,0,1.58.06,2.37.11a.78.78,0,0,1,.72.83A.77.77,0,0,1,126.76,87.24Z" transform="translate(-62.14 -45.95)"/><path class="cls-7" d="M423.38,242a.78.78,0,0,1-.78-.78V218.53H398.54a.77.77,0,0,1-.78-.77.78.78,0,0,1,.78-.78h24.84a.78.78,0,0,1,.78.78v23.43A.78.78,0,0,1,423.38,242Z" transform="translate(-62.14 -45.95)"/><path class="cls-7" d="M402,217.76a3.49,3.49,0,1,1-3.48-3.49A3.48,3.48,0,0,1,402,217.76Z" transform="translate(-62.14 -45.95)"/><circle class="cls-7" cx="361.24" cy="171.81" r="3.48"/><path class="cls-7" d="M426.86,241.19a3.49,3.49,0,1,1-3.48-3.48A3.48,3.48,0,0,1,426.86,241.19Z" transform="translate(-62.14 -45.95)"/><path class="cls-7" d="M450,241.19a3.49,3.49,0,1,1-3.48-3.48A3.48,3.48,0,0,1,450,241.19Z" transform="translate(-62.14 -45.95)"/><path class="cls-7" d="M446.5,242H423.38a.78.78,0,0,1-.78-.78.77.77,0,0,1,.78-.77H446.5a.77.77,0,0,1,.78.77A.78.78,0,0,1,446.5,242Z" transform="translate(-62.14 -45.95)"/><path class="cls-9" d="M123.93,416.7a.8.8,0,0,1-.8-.8V391.06a.8.8,0,0,1,.8-.8h23.44a.8.8,0,0,1,0,1.6H124.73v24A.8.8,0,0,1,123.93,416.7Z" transform="translate(-62.14 -45.95)"/><path class="cls-9" d="M123.93,412.42a3.49,3.49,0,1,1-3.48,3.48A3.48,3.48,0,0,1,123.93,412.42Z" transform="translate(-62.14 -45.95)"/><path class="cls-9" d="M123.93,387.57a3.49,3.49,0,1,1-3.48,3.49A3.49,3.49,0,0,1,123.93,387.57Z" transform="translate(-62.14 -45.95)"/><path class="cls-9" d="M147.37,387.57a3.49,3.49,0,1,1-3.49,3.49A3.48,3.48,0,0,1,147.37,387.57Z" transform="translate(-62.14 -45.95)"/><path class="cls-9" d="M147.37,364.45a3.49,3.49,0,1,1-3.49,3.49A3.48,3.48,0,0,1,147.37,364.45Z" transform="translate(-62.14 -45.95)"/><path class="cls-9" d="M147.37,391.86a.8.8,0,0,1-.8-.8V367.94a.8.8,0,1,1,1.6,0v23.12A.8.8,0,0,1,147.37,391.86Z" transform="translate(-62.14 -45.95)"/><circle class="cls-5" cx="378.91" cy="60.88" r="10.63" transform="translate(182.85 374.58) rotate(-78.71)"/><circle class="cls-5" cx="77.66" cy="375.08" r="10.63" transform="translate(-367.38 318.94) rotate(-76.78)"/><circle class="cls-5" cx="437.21" cy="293.89" r="10.63" transform="translate(-11.02 606.34) rotate(-76.78)"/></g></svg>