<svg xmlns="http://www.w3.org/2000/svg" viewBox="0 0 288.34 417.04"><defs><style>.cls-1{fill:#000644;}.cls-2{fill:#fe9174;}.cls-3{fill:#d23e3c;}.cls-4{fill:#0958d1;}.cls-5{fill:#fff;}.cls-6{fill:#14b74e;}.cls-7{fill:#057f42;}.cls-8{fill:#0980f7;}.cls-9{fill:#ff4b4a;}.cls-10{fill:#3b9eff;}.cls-11{fill:#005086;}</style></defs><g id="OBJECTS"><ellipse class="cls-1" cx="322.07" cy="101.97" rx="9.12" ry="8.43" transform="translate(76.78 335.22) rotate(-81.82)"/><path class="cls-2" d="M224.22,123.79s-6.29,59,10.88,61.28c19.87,2.67,6.76-39.4,1.9-49.82S234.52,123.34,224.22,123.79Z" transform="translate(-98.55 -71.04)"/><path class="cls-1" d="M236.32,132.71c-.93,4.75-4.72,10.4-10,11a4.81,4.81,0,0,1-4.94-2.39,3.48,3.48,0,0,1,1.31-4.45c.51-.32,1,.51.44.83-2.19,1.36-.92,4.26,1.16,4.9a6.17,6.17,0,0,0,5.1-1.05,13.82,13.82,0,0,0,6-9.08c.12-.59,1-.33.9.26Z" transform="translate(-98.55 -71.04)"/><path class="cls-3" d="M223.92,98.55s-4.74-4.78-6.18-3.52,2.57,4.6,3.83,7,5,8.27,5,8.27Z" transform="translate(-98.55 -71.04)"/><path class="cls-2" d="M224.55,128.75a90,90,0,0,1-6.76-7.06c-3.08-3.64-8.1-5.13-4.68-6.73s8.54,2.35,10.08,1.91c2.76-.8,1.94-5.49-.2-13.27-2.82-10.23-1-11.15-.39-10.77,2.35,1.44,3.21,6.41,6.8,13.93s3.92,16.59,3.31,21.37A33.49,33.49,0,0,1,224.55,128.75Z" transform="translate(-98.55 -71.04)"/><polygon class="cls-2" points="59.38 226.86 46.69 261.51 32.49 259.78 38.93 218.65 59.38 226.86"/><path class="cls-4" d="M99.85,347.62A8.23,8.23,0,0,0,98.56,352L142.2,355a20.65,20.65,0,0,0,1.91-5.5c1.1-5.46-.14-9.85,1.24-11.74,3.89-5.34.71-7.47.71-7.47-1-1.94-6.18,1.23-8.93,1.16s-5.19-5.92-5.91-6.21-2,5.52-4.07,8.85-13.66,4.82-21.33,8.49A13.4,13.4,0,0,0,99.85,347.62Z" transform="translate(-98.55 -71.04)"/><path class="cls-5" d="M119.73,336.8a4.32,4.32,0,0,1,3.82,2c.33.51-.5.95-.82.45a3.38,3.38,0,0,0-3-1.54c-.6,0-.58-.91,0-.94Z" transform="translate(-98.55 -71.04)"/><path class="cls-5" d="M117.25,337.75a6,6,0,0,1,3.26,1.89c.41.44-.28,1.09-.68.64a5.15,5.15,0,0,0-2.84-1.63c-.59-.13-.33-1,.26-.9Z" transform="translate(-98.55 -71.04)"/><path class="cls-5" d="M114.13,338.51a7.49,7.49,0,0,1,3.37,2c.42.43-.27,1.07-.69.64a6.3,6.3,0,0,0-2.94-1.76.47.47,0,0,1,.26-.9Z" transform="translate(-98.55 -71.04)"/><path class="cls-5" d="M99.85,347.62A8.23,8.23,0,0,0,98.56,352L142.2,355a20.65,20.65,0,0,0,1.91-5.5Z" transform="translate(-98.55 -71.04)"/><path class="cls-5" d="M144.27,341.93a16.59,16.59,0,0,0-17.67,8.8c-.27.54-1.07,0-.8-.49A17.54,17.54,0,0,1,144.53,341c.59.11.33,1-.26.9Z" transform="translate(-98.55 -71.04)"/><path class="cls-5" d="M128.48,346.91,102.71,346a.47.47,0,0,1,0-.94l25.78.89a.47.47,0,0,1,0,.94Z" transform="translate(-98.55 -71.04)"/><path class="cls-6" d="M160.45,185.43c-15.61,25.55-32.34,114.9-32.34,114.9L161,312.46l28.47-74.54,54.84,25.58c19.65-14.92,23.28-32,.29-52.8,0,0-40.5-23.85-64.47-30.48-5.24-1.45-9.69-2.08-12.75-1.46C165.1,179.22,162.79,181.61,160.45,185.43Z" transform="translate(-98.55 -71.04)"/><path class="cls-7" d="M160.45,185.43c4.26,5.36,10.32,11,17,10.89,7.79-.13,5.55-9.16,2.67-16.1-5.24-1.45-9.69-2.08-12.75-1.46C165.1,179.22,162.79,181.61,160.45,185.43Z" transform="translate(-98.55 -71.04)"/><polygon class="cls-7" points="65.51 236.06 27.95 223.03 24.98 233.44 62.96 246.59 65.51 236.06"/><path class="cls-7" d="M157.4,304.38l.08,0a.45.45,0,0,0,.58-.26l29.69-79.09,49.58,23.7a.45.45,0,1,0,.38-.81l-50-23.91a.45.45,0,0,0-.36,0,.43.43,0,0,0-.25.26l-29.86,79.54A.44.44,0,0,0,157.4,304.38Z" transform="translate(-98.55 -71.04)"/><polygon class="cls-2" points="95.16 354.49 84.94 388 71.26 383.73 73.99 349.66 95.16 354.49"/><path class="cls-4" d="M171.26,442.74a3.66,3.66,0,0,0-3.08,4,14,14,0,0,1-2,8.91c-3.34,5.18-18.11,18.62-18.91,26s12.51,10,22.53-.3,15.77-13.5,17.76-19.85,0-15.28,0-15.28l-1.59,2s-7.14,2.57-8.14-2C177.22,443.26,173.93,442.33,171.26,442.74Z" transform="translate(-98.55 -71.04)"/><path class="cls-5" d="M181.35,469.61a22.64,22.64,0,0,1,1.11-9.28,20.08,20.08,0,0,1,6.27-8.76c.46-.37-.19-1-.64-.65a20.92,20.92,0,0,0-6.4,8.87,23.08,23.08,0,0,0-1.26,9.82c0,.58.95.59.92,0Z" transform="translate(-98.55 -71.04)"/><path class="cls-5" d="M180.89,465.16c0,.46-.08.93-.09,1.4l-1,1c-2.78,2.86-5.63,5.65-8.44,8.49-2.62,2.65-5.1,5.51-8.2,7.61-2.89,1.94-6.47,3.19-10,2.49a8.51,8.51,0,0,1-6.38-5.31c-.2-.55.68-.79.88-.24,1.29,3.57,5.22,5.19,8.8,4.75s6.73-2.59,9.33-5,4.88-4.93,7.32-7.38C175.76,470.39,178.37,467.82,180.89,465.16Z" transform="translate(-98.55 -71.04)"/><path class="cls-5" d="M156.83,466.44a4.08,4.08,0,0,1,5.14,2.85.46.46,0,0,0,.88-.25,5,5,0,0,0-6.26-3.48.46.46,0,0,0,.24.88Z" transform="translate(-98.55 -71.04)"/><path class="cls-5" d="M159.47,463.89a4.08,4.08,0,0,1,5.14,2.85.46.46,0,0,0,.88-.25,5,5,0,0,0-6.26-3.48.46.46,0,0,0,.24.88Z" transform="translate(-98.55 -71.04)"/><path class="cls-5" d="M161.81,461.32a4.09,4.09,0,0,1,5.14,2.85.46.46,0,0,0,.88-.25,5,5,0,0,0-6.27-3.48.46.46,0,0,0,.25.88Z" transform="translate(-98.55 -71.04)"/><path class="cls-5" d="M163.79,458.84a4.09,4.09,0,0,1,5.14,2.85.46.46,0,0,0,.88-.25,5,5,0,0,0-6.27-3.48.46.46,0,0,0,.25.88Z" transform="translate(-98.55 -71.04)"/><path class="cls-6" d="M195.61,311.7c-1.32,2.37-3.07,7.5-5,14.36-9.34,32.48-23.89,103.66-23.89,103.66l34.17,12.79s27.32-99.23,31-103.74c9.79-12.12,76.81-71.39,76.81-71.39l-42-39.74s-53.74,59.73-68.2,79.81A45.84,45.84,0,0,0,195.61,311.7Z" transform="translate(-98.55 -71.04)"/><path class="cls-7" d="M195.61,311.7c-1.32,2.37-3.07,7.5-5,14.36,6.13,3.17,16.46,7.31,21.53,2.54,7.76-7.32-7.56-17.52-13.69-21.15A45.84,45.84,0,0,0,195.61,311.7Z" transform="translate(-98.55 -71.04)"/><path class="cls-7" d="M251.16,245.37,239,259.55c-.38.44-1-.22-.61-.65l12.19-14.19c.37-.43,1,.22.61.66Z" transform="translate(-98.55 -71.04)"/><path class="cls-7" d="M242.06,254.39c-2.72-2.63-2-6.87-.2-9.82a30,30,0,0,1,8.73-9.4c.48-.32.9.48.42.79a30,30,0,0,0-7.78,8.13c-1.88,2.77-3.3,7-.51,9.69.41.4-.24,1-.66.61Z" transform="translate(-98.55 -71.04)"/><path class="cls-7" d="M198,432.67l.12.05a.46.46,0,0,0,.55-.33c.23-.92,23.3-92.83,26-97.21s68.22-63.25,68.88-63.84a.46.46,0,0,0,0-.64.44.44,0,0,0-.63,0c-2.71,2.43-66.26,59.54-69,64s-25.17,93.68-26.12,97.48A.45.45,0,0,0,198,432.67Z" transform="translate(-98.55 -71.04)"/><polygon class="cls-7" points="106.54 365.57 67.09 349.66 64.37 359.47 103.62 375.11 106.54 365.57"/><path class="cls-4" d="M372.23,163.66c-8,21.4-19,41.38-28.84,57.14l-.46.74c-1.57,2.49-3.11,4.87-4.6,7.14l-.53.79c-5,7.51-9.4,13.65-12.66,18l-.12.16c-2.16,2.89-3.79,5-4.7,6.11l-.59.73-.21.26-1.29-1h0l-2.42-1.91-24.1-18.94-.75-.59-31.23-24.56-4-3.11h0l-3.9-3.06,0,0h.06c1.89.48,4.86-2.1,8.43-6.6q.33-.4.66-.84c1-1.35,2.13-2.86,3.26-4.48,0,0,0,0,0,0l0-.07c.35-.5.7-1,1-1.54,3.8-5.66,8-12.59,12-19.78.16-.29.32-.58.49-.87q1.11-2,2.21-4l.22-.41h0l.46-.83c1.8-3.28,3.56-6.55,5.24-9.73l.48-.9c5.29-10.06,9.77-19.1,12.2-24.23.2-.42.39-.81.56-1.18.65-1.4,1.1-2.39,1.29-2.88a2.68,2.68,0,0,1,1.8-1.39,17.24,17.24,0,0,1,5.31-.61h1c14.46.37,42.82,7.57,42.82,7.57s5.47,8,11.29,17.85c.23.39.48.78.73,1.17l.52.8c3.07,4.58,7.36,9.61,8.21,13a5.44,5.44,0,0,1,.15.93A3,3,0,0,1,372.23,163.66Z" transform="translate(-98.55 -71.04)"/><path class="cls-8" d="M343.39,220.8l-.46.74a36.25,36.25,0,0,1-6.73-5.12c-10.9-10.4-14.72-25.27-21-38.48-4.9-10.35-12.83-21.3-24.18-24.64h0a25.18,25.18,0,0,0-5-.93c-.12,0-.25,0-.38,0-.6-.05-.61-1,0-.94l.86.07a25.49,25.49,0,0,1,4.87,1,33,33,0,0,1,13.09,8C315.24,170.93,319,185.81,325.33,199,329.3,207.33,335.27,216,343.39,220.8Z" transform="translate(-98.55 -71.04)"/><path class="cls-4" d="M332.87,236.66s-3,4.4-7.73,10.81l-.12.16c-5.75,7.84-14,18.62-22.17,28,0,0-5.33-3.75-13.05-10.06L289,265c-3.24-2.66-6.86-5.75-10.67-9.18l-.84-.76c-1.4-1.28-2.83-2.6-4.27-4-.29-.27-.58-.54-.86-.82-10.52-10-21.64-22.23-29.54-35.06l-.68-1.12c-1.36-2.28-2.62-4.57-3.75-6.87a36.48,36.48,0,0,0,11.9-4.7l.89-.55.64-.4,0,0a44.82,44.82,0,0,0,8-6.66c.26-.27.52-.55.77-.83a46.89,46.89,0,0,0,3.57-4.43s0,0,0,0l0-.07c.36-.5.7-1,1-1.54l8.51,6.14,1,.73,20.89,15.07.82.6,15.05,10.85,1,.72Z" transform="translate(-98.55 -71.04)"/><path class="cls-8" d="M320.32,253.74l-.59.73q-.74-.41-1.5-.75h0a19.67,19.67,0,0,0-2.39-.92A20.67,20.67,0,0,0,296,256.6a22,22,0,0,0-6.17,9L289,265c.21-.56.45-1.1.7-1.64A21.64,21.64,0,0,1,306.58,251a22.94,22.94,0,0,1,13.74,2.79Z" transform="translate(-98.55 -71.04)"/><path class="cls-8" d="M338.33,228.68l-.53.79a27.53,27.53,0,0,0-15.34-7.54,30.91,30.91,0,0,0-9.84.13,41.39,41.39,0,0,0-20.92,10.81,46.87,46.87,0,0,0-5.65,6.34,45.93,45.93,0,0,0-7.69,16.57l-.84-.76c0-.14.07-.28.11-.43A47.34,47.34,0,0,1,291,232.28a44.55,44.55,0,0,1,13.39-8.73,37.63,37.63,0,0,1,7.29-2.21,31.76,31.76,0,0,1,13.89.25A28,28,0,0,1,338.33,228.68Z" transform="translate(-98.55 -71.04)"/><path class="cls-8" d="M300.93,206.47a14.88,14.88,0,0,1-4.35,4,19.68,19.68,0,0,1-4.85,2.14c-8.7,2.58-18.45.65-26.71-2.58q-2.7-1.05-5.3-2.33a102.68,102.68,0,0,1-9.4-5.23l.89-.55c1.49.92,3,1.81,4.54,2.66h0A75.65,75.65,0,0,0,267.44,210c8,2.78,17.42,4.32,25.54,1.27a17.32,17.32,0,0,0,2.78-1.33,14.13,14.13,0,0,0,5.75-6.33,22.65,22.65,0,0,0,1.37-11.92c-1.42-11.86-9.45-22.51-20.13-27.65-.81-.39-1.63-.75-2.47-1.07h0l-.8-.3h0c-.36-.44-.72-.89-1.06-1.35.78.25,1.56.52,2.32.82,1,.37,1.9.79,2.82,1.24a37.45,37.45,0,0,1,13,10.77A35.39,35.39,0,0,1,304,194.79C304.1,198.85,303.32,203.11,300.93,206.47Z" transform="translate(-98.55 -71.04)"/><path class="cls-1" d="M262.13,197.6a142.66,142.66,0,0,1,33.81,33.06c.35.48-.33,1.13-.68.64a142.16,142.16,0,0,0-33.62-32.91c-.49-.34,0-1.14.49-.79Z" transform="translate(-98.55 -71.04)"/><path class="cls-1" d="M337.14,148a13.28,13.28,0,0,1-18.35-6.87c-.19-.48.51-.86.71-.38a12.47,12.47,0,0,0,17.26,6.54.4.4,0,0,1,.38.71Z" transform="translate(-98.55 -71.04)"/><path class="cls-1" d="M290.35,136C286.66,143.22,283.7,150.8,280,158c-.26.51-1,0-.76-.47,3.69-7.24,6.65-14.82,10.34-22.07.26-.51,1,0,.76.47Z" transform="translate(-98.55 -71.04)"/><path class="cls-2" d="M352.56,132.15s-10,16.34-25.42,8.55l2.57-14.28,1.2-6.45.84-4.51,17.47-4.74A61.6,61.6,0,0,0,352.56,132.15Z" transform="translate(-98.55 -71.04)"/><path class="cls-1" d="M345.66,117.69c-7,10.18-14,11.92-16.41,11.19l1.66-8.91Z" transform="translate(-98.55 -71.04)"/><path class="cls-1" d="M321.23,89.74s-3.92,6.17,2.36,12.87Z" transform="translate(-98.55 -71.04)"/><path class="cls-2" d="M350.7,105.68a14.46,14.46,0,0,1-.1,2,12.76,12.76,0,0,1-1.17,4.08,41.79,41.79,0,0,1-3.76,6c-2.68,3.77-7.22,5.29-11.64,5.41-11.74.34-13-7.64-12.35-19.75.41-7.53-1.82-11.63,0-14.6h0c.12-.14.24-.27.37-.4a16.88,16.88,0,0,1,11.5-5.17c.84,0,1.65,0,2.42,0l.52,0h.21l.58,0,.41,0,.9.08c9.43,1,11.91,6.7,12.38,12.33C351.29,99.51,350.68,103.33,350.7,105.68Z" transform="translate(-98.55 -71.04)"/><path class="cls-1" d="M333.71,101.66a1.87,1.87,0,0,0-2,.92.48.48,0,0,1-.81-.5,2.84,2.84,0,0,1,3.07-1.33c.6.13.33,1-.26.91Z" transform="translate(-98.55 -71.04)"/><path class="cls-1" d="M325.85,103a2,2,0,0,0-2.08-.88c-.6.09-.82-.83-.22-.92a3,3,0,0,1,3.13,1.35c.35.51-.49,1-.83.45Z" transform="translate(-98.55 -71.04)"/><path class="cls-3" d="M338.35,104.92c0,.64-1,1.17-2.23,1.18s-2.24-.5-2.25-1.14,1-1.18,2.23-1.19S338.35,104.27,338.35,104.92Z" transform="translate(-98.55 -71.04)"/><path class="cls-3" d="M321.56,106.44a3.31,3.31,0,0,0,1.76.44c1.24,0,2.23-.55,2.23-1.19s-1-1.16-2.25-1.15a3.36,3.36,0,0,0-1.7.43Z" transform="translate(-98.55 -71.04)"/><path class="cls-1" d="M332.4,98a1.58,1.58,0,0,1,2.11.6,1.05,1.05,0,0,0,1.27.71,1,1,0,0,0,.7-1.27,3.56,3.56,0,0,0-4.65-2,1.05,1.05,0,0,0-.7,1.27,1,1,0,0,0,1.27.7Z" transform="translate(-98.55 -71.04)"/><path class="cls-1" d="M323.79,99a2,2,0,0,1,2.15-.79,1,1,0,0,0,.53-2,4,4,0,0,0-4.15,1.33c-.84,1,.62,2.46,1.47,1.44Z" transform="translate(-98.55 -71.04)"/><path class="cls-1" d="M327.23,105.65a4.08,4.08,0,0,0,2.32.51.3.3,0,0,0,.28-.32.3.3,0,0,0-.31-.28,3.6,3.6,0,0,1-1.76-.31,6.48,6.48,0,0,0,1.21-3.39.3.3,0,0,0-.28-.32.31.31,0,0,0-.32.28s-.15,2.3-1.29,3.27a.28.28,0,0,0-.1.24.3.3,0,0,0,.11.23Z" transform="translate(-98.55 -71.04)"/><path class="cls-1" d="M346.52,109a6.42,6.42,0,0,0,4.08-1.32,12.76,12.76,0,0,1-1.17,4.08A6.48,6.48,0,0,1,346.52,109Z" transform="translate(-98.55 -71.04)"/><path class="cls-1" d="M348.33,95.63c-4.66,1.31-5.06,9.29-7.47,7.94s3.89-11.06-2.27-10.67-4.41-.43-7.23-.21c-4.79.39-7.75-3.36-9.69-3.89.12-.14.24-.27.37-.4a16.88,16.88,0,0,1,11.5-5.17c.84,0,1.65,0,2.42,0l.52,0h.21l.58,0,.41,0,.9.08c9.43,1,11.91,6.7,12.38,12.33A4,4,0,0,0,348.33,95.63Z" transform="translate(-98.55 -71.04)"/><path class="cls-1" d="M340.86,103.57c2.41,1.35,2.81-6.63,7.47-7.94a4,4,0,0,1,2.63.05c.33,3.83-.28,7.65-.26,10a15.43,15.43,0,0,1-.09,2c1.75-4.87,3.71-10.63,4.11-13.05a8.71,8.71,0,0,0,.12-1.39l-.34-.34a9,9,0,0,0-1.66-1.25,11.43,11.43,0,0,0-3.12-1.21,26.75,26.75,0,0,0-10.66.13C341.43,93.54,338.89,102.46,340.86,103.57Z" transform="translate(-98.55 -71.04)"/><path class="cls-5" d="M324.89,109.78l8.15-.93s-.3,5.82-4.24,5.84C325.46,114.7,324.89,109.78,324.89,109.78Z" transform="translate(-98.55 -71.04)"/><path class="cls-3" d="M328.16,116.72a2.44,2.44,0,0,0,2.55-.4c.36-.34-.19-.88-.55-.54a1.7,1.7,0,0,1-1.8.19c-.47-.15-.67.6-.2.75Z" transform="translate(-98.55 -71.04)"/><path class="cls-2" d="M342.77,106.15a6.5,6.5,0,0,1,.76-5.63c1.39-2.17,4-5.51,6.47-5.18,3.67.48,4.13,3.74,3.8,7.08s-2.48,7.72-7.06,7A4.69,4.69,0,0,1,342.77,106.15Z" transform="translate(-98.55 -71.04)"/><path class="cls-1" d="M347.13,105.52a8.66,8.66,0,0,1,.21-4.2c.46-1.2,1.78-2.94,3.32-2.45.52.16.86-.61.34-.78a3.44,3.44,0,0,0-3.74,1.61c-1.25,1.73-1.25,3.9-1,5.92a.42.42,0,0,0,.84-.1Z" transform="translate(-98.55 -71.04)"/><path class="cls-2" d="M230.68,176.54c-.34,9.34,7.46,12.63,21.24,4.55a233.37,233.37,0,0,0,20-13.29c2-1.48,3.89-2.9,5.59-4.22,6.42-5,10.47-8.53,10.47-8.53l-12.9-20.24s-1.78,1.13-4.62,3.05c-1.48,1-3.26,2.22-5.23,3.6C252.28,150.6,231,167,230.68,176.54Z" transform="translate(-98.55 -71.04)"/><path class="cls-3" d="M245.07,158a46.85,46.85,0,0,1,2.19,15.28.47.47,0,0,1-.93,0,46.17,46.17,0,0,0-2.17-15c-.18-.58.73-.8.91-.22Z" transform="translate(-98.55 -71.04)"/><path class="cls-3" d="M245.86,161.08a21,21,0,0,1,3.76,4.44c.33.5-.5.95-.82.44a20.12,20.12,0,0,0-3.62-4.24c-.45-.39.23-1,.68-.64Z" transform="translate(-98.55 -71.04)"/><path class="cls-4" d="M306.9,121.44a9.43,9.43,0,0,0-5.29,2.54,12.65,12.65,0,0,0-1.68,2,7.53,7.53,0,0,0-.48.79c-.12.22-.24.46-.36.71s-.13.28-.2.43c-1.92,4.44-3.22,12.48-7.56,24.55l-.3.84h0q-1,2.63-2.12,5.5c-2.14,1.88-4,3.45-5.35,4.53l-.81.66c-.79.64-1.25,1-1.25,1q-.74-.81-1.44-1.65c-.2-.23-.39-.47-.58-.71h0c-.36-.44-.72-.89-1.06-1.35a82.6,82.6,0,0,1-8.37-14c-.14-.28-.27-.56-.4-.84-2.22-4.74-3.41-8.18-3.41-8.18a86.32,86.32,0,0,1,19-11.47c.38-.17.75-.33,1.13-.48a68.42,68.42,0,0,1,10.95-3.56l.9-.19c1.56-.34,2.95-.57,4.13-.73a31.45,31.45,0,0,1,4.59-.34Z" transform="translate(-98.55 -71.04)"/><path class="cls-4" d="M353.91,93.3s21.85-2.58,12.24-8.85c-12.31-8-29.67-1.24-29.67-1.24Z" transform="translate(-98.55 -71.04)"/><path class="cls-9" d="M320.8,90.21s4.77,3.64,19.8,3.56a141,141,0,0,0,14.24-.56s3.34-13.64-14.21-17.71C321.9,71.16,320.8,90.21,320.8,90.21Zm8.52-3.63c2.17.17,4.95,2.39,5,4.42a17.07,17.07,0,0,1-9.27-1S326.45,86.36,329.32,86.58Z" transform="translate(-98.55 -71.04)"/><path class="cls-1" d="M339.26,75.27c6.51,3.33,11.38,10.83,9.33,18.27a.35.35,0,0,1-.68-.2c2-7.15-2.79-14.29-9-17.47-.4-.2,0-.8.37-.6Z" transform="translate(-98.55 -71.04)"/><path class="cls-1" d="M334.7,90.74a2.54,2.54,0,0,1,.38,2.59c-.18.41-.86.22-.68-.19a1.85,1.85,0,0,0-.21-1.92c-.28-.35.23-.83.51-.48Z" transform="translate(-98.55 -71.04)"/><path class="cls-1" d="M325.2,90.33a2.42,2.42,0,0,0-.54,1.38c0,.45-.73.44-.7,0A3.14,3.14,0,0,1,324.6,90c.28-.35.88,0,.6.37Z" transform="translate(-98.55 -71.04)"/><rect class="cls-4" x="216.25" y="23.86" width="26.19" height="12.39" rx="5.53"/><path class="cls-8" d="M337.85,99v4.12a1.5,1.5,0,0,1-1.5,1.49H317.92a1.48,1.48,0,0,1-1.46-1.2,1.36,1.36,0,0,1,0-.29V99a1.5,1.5,0,0,1,1.49-1.5h18.43a1.48,1.48,0,0,1,1.34.84A1.46,1.46,0,0,1,337.85,99Z" transform="translate(-98.55 -71.04)"/><path class="cls-10" d="M337.69,98.38l-6.27,6.27h-4.89l7.11-7.11h2.71A1.48,1.48,0,0,1,337.69,98.38Z" transform="translate(-98.55 -71.04)"/><path class="cls-10" d="M325.82,97.54l-7.11,7.11h-.79a1.48,1.48,0,0,1-1.46-1.2l5.91-5.91Z" transform="translate(-98.55 -71.04)"/><path class="cls-4" d="M340.72,97.11s4.31-1.68,7.61-1.48a7.42,7.42,0,0,0-4,3.75L341,101.1Z" transform="translate(-98.55 -71.04)"/><path class="cls-1" d="M358.72,101.84c-.71,5-5,8.48-9.64,7.82s-7.76-5.24-7-10.22,5-8.49,9.64-7.83S359.44,96.85,358.72,101.84Z" transform="translate(-98.55 -71.04)"/><path class="cls-11" d="M358,101.56a5.69,5.69,0,1,1-4.75-6.88A5.91,5.91,0,0,1,358,101.56Z" transform="translate(-98.55 -71.04)"/><path class="cls-1" d="M356,101a2.62,2.62,0,1,1-2.18-3.16A2.73,2.73,0,0,1,356,101Z" transform="translate(-98.55 -71.04)"/><path class="cls-11" d="M350.76,94h.11a1,1,0,0,0,1-1c0-.72.51-17.87-8.53-21.17a13.07,13.07,0,0,0-11.07.85,15.45,15.45,0,0,0-4.2,3.36,1,1,0,0,0,1.57,1.27c.21-.26,5.34-6.39,13-3.59s7.21,19,7.21,19.21A1,1,0,0,0,350.76,94Z" transform="translate(-98.55 -71.04)"/><path class="cls-8" d="M286.33,126.26c-.2.7-.43,1.4-.67,2.09a36,36,0,0,1-15.61,18.88c-.14-.28-.27-.56-.4-.84a34.34,34.34,0,0,0,15.55-19.65C285.58,126.57,286,126.41,286.33,126.26Z" transform="translate(-98.55 -71.04)"/><path class="cls-1" d="M270.3,135.77a74.53,74.53,0,0,0,12.54,22.35c.38.46-.3,1.11-.68.64A75.68,75.68,0,0,1,269.39,136c-.2-.56.71-.78.91-.21Z" transform="translate(-98.55 -71.04)"/><path class="cls-8" d="M328.24,134.59l-1.1-.2a27.09,27.09,0,0,1-17.81-12.06c-.24-.38-.46-.76-.67-1.15h-1a26.19,26.19,0,0,0,7.12,8.58,28.7,28.7,0,0,0,13.33,5.77A7.58,7.58,0,0,0,328.24,134.59Z" transform="translate(-98.55 -71.04)"/><path class="cls-8" d="M364,148.57c-2.74,1.41-5.54,2.71-8.41,3.85-12.89,5.11-28.55,6.62-40.55-1.58-8.1-5.53-13-13.89-16.17-22.94-.08-.22-.15-.44-.23-.67-.5-1.49-1-3-1.38-4.53l.9-.19c.32,1.19.66,2.37,1,3.54.07.24.15.47.23.71a56.11,56.11,0,0,0,4.62,10.5,37.81,37.81,0,0,0,13.58,14.1,36.39,36.39,0,0,0,20.11,4.28c9.17-.51,17.67-3.72,25.74-7.87Z" transform="translate(-98.55 -71.04)"/><path class="cls-1" d="M293.53,141q-6.6,11.17-12.31,22.83c-.23.47-.91,0-.68-.42q5.7-11.64,12.3-22.83a.4.4,0,0,1,.69.42Z" transform="translate(-98.55 -71.04)"/><path class="cls-8" d="M282.82,188.61c-1.49,3.41-4.5,5.34-7.95,6.21-.43.11-.87.21-1.31.28a40.7,40.7,0,0,1-13.26-.18l-.4-.06h0c.26-.27.52-.55.77-.83l.31.05.11,0a38.51,38.51,0,0,0,12.72,0l.06,0c4.07-.81,7.37-3.09,8.61-7.2,2-6.52-.54-13.81-5.1-18.72.16-.29.32-.58.49-.87a22.24,22.24,0,0,1,5.36,9.36A18,18,0,0,1,282.82,188.61Z" transform="translate(-98.55 -71.04)"/><path class="cls-8" d="M273.25,251.06c-.29-.27-.58-.54-.86-.82,0-.65.07-1.3.06-2a32,32,0,0,0-11.93-24.52,44.33,44.33,0,0,0-17.67-8.58l-.68-1.12a50.82,50.82,0,0,1,8,2.51c9,3.72,17,10.32,20.78,19.49A31.75,31.75,0,0,1,273.25,251.06Z" transform="translate(-98.55 -71.04)"/><path class="cls-5" d="M328.4,124.77c-4.49,7.16-11.38,12.51-18.25,17.25-3.06,2.12-6.27,4.43-7.53,8.11a7.22,7.22,0,0,0,3,8.59c3.33,2.17,7.6,1.7,11.16.42a50.21,50.21,0,0,0,10-5.51c3.38-2.18,6.82-4.26,10.75-5.29,4.13-1.09,8.48-1.33,12.46-3,2.95-1.23,6.61-3.51,6.54-7.1a13.45,13.45,0,0,0-4.3-8.92c-.28-.27-.72.16-.43.43a13.2,13.2,0,0,1,4.09,8c.31,3.48-3,5.66-5.84,6.9-3.68,1.61-7.72,1.92-11.6,2.81a32.33,32.33,0,0,0-9.76,4.22c-3,1.85-5.89,3.92-9,5.53-3.53,1.79-7.84,3.19-11.77,1.9a6.85,6.85,0,0,1-4.64-8.84c1.32-3.81,4.83-6,8-8.23,6.7-4.67,13.37-10,17.76-17,.21-.33-.32-.64-.53-.3Z" transform="translate(-98.55 -71.04)"/><path class="cls-8" d="M372.38,162.52a45.09,45.09,0,0,0-5.33-.47c-10.88-.3-22.45,4.14-27.29,14.51a18.15,18.15,0,0,0-.6,14.51,15.84,15.84,0,0,0,10.42,9.48.47.47,0,0,1-.26.9A16.89,16.89,0,0,1,338,190.62c-3.84-10.68,3.44-21.83,13-26.36,6.75-3.19,14-3.66,21.22-2.67A5.44,5.44,0,0,1,372.38,162.52Z" transform="translate(-98.55 -71.04)"/><path class="cls-1" d="M348.24,198.49a346.34,346.34,0,0,1-36.88,57.3q-5.91,7.46-12.22,14.57c-.4.45-1-.24-.64-.69a345.78,345.78,0,0,0,39.73-54.83q4.84-8.29,9.21-16.84c.28-.53,1.08,0,.8.49Z" transform="translate(-98.55 -71.04)"/><path class="cls-2" d="M351.25,201.46s.22,2.59.67,6.91c.07.73.16,1.5.25,2.32.92,8.53.25,21.95,2.68,35.46,2.88,16,12.8,19,21.18,13.27s9.1-29.87,7.88-46c-.32-4.25-.69-7.84-1-10.24-.23-2-.39-3.22-.39-3.22Z" transform="translate(-98.55 -71.04)"/><path class="cls-2" d="M377,258.64s-13.47,12.83-29.46,7.33c-15.1-5.19-49.9-35.32-49.9-35.32l.66-10.93s39,13.28,60.23,22.29Z" transform="translate(-98.55 -71.04)"/><path class="cls-2" d="M304.82,226.18a7.51,7.51,0,0,1-8.24,6.36,18.34,18.34,0,0,0-6.25.34c-4.32,1.24-9.07,3.91-11.43,3.92-3.48,0-.94-2.74-.58-3a52.39,52.39,0,0,1,6-4s-7.35,2.05-9.7,3.94-5,1.31-3.8-1.7,8.8-7,11.21-7.48c0,0-4.86.1-8.12,2.55s-4.75,2.88-6.38,3.09-1.72-3.11,2.92-6.41a17.94,17.94,0,0,1,10-3.78,30.1,30.1,0,0,0-5.87-.66c-3.7-.12-7.23,3-9.19,2s2.23-4.48,5.41-5.32,5.43-1.73,9.6-1.18a52.36,52.36,0,0,1,10.55,2.14c2.42.92,11.45,3.09,13.44,6.25A4.56,4.56,0,0,1,304.82,226.18Z" transform="translate(-98.55 -71.04)"/><path class="cls-5" d="M301.86,220.49c3.18,1.82,4.11,5.6,3.69,9-.21,1.71-.57,4.13-2,5.28a2,2,0,0,1-3-.28,5.92,5.92,0,0,1-1-2.57c-.09-.39-.68-.23-.59.16.38,1.7,1.21,4,3.38,3.85s3-2.53,3.39-4.3c1-4.21.52-9.33-3.6-11.7a.31.31,0,0,0-.31.53Z" transform="translate(-98.55 -71.04)"/><path class="cls-2" d="M297.67,219.33s-6-5.15-8.62-5.65-6.32-2.64-6.8-.91,4.14,4.25,4.14,4.25Z" transform="translate(-98.55 -71.04)"/><path class="cls-3" d="M354.59,239.62a26.28,26.28,0,0,1,8.68,5.51c.37.36-.14,1-.52.62a25.48,25.48,0,0,0-8.5-5.4c-.48-.18-.14-.91.34-.73Z" transform="translate(-98.55 -71.04)"/><path class="cls-3" d="M357.05,240.86a11.57,11.57,0,0,1,6.35-1c.51.06.38.85-.14.79a10.78,10.78,0,0,0-5.92,1c-.47.22-.75-.53-.29-.75Z" transform="translate(-98.55 -71.04)"/><path class="cls-4" d="M386.89,207.07a94.09,94.09,0,0,1-15.16,3.5h0l-1,.13a69.88,69.88,0,0,1-12.41.65l-1,0a47,47,0,0,1-5-.58s-4.89-21.46-2.8-35c1.91-12.38,7.83-20.76,16.05-22.36,0,0,3.64,2.85,8,9.86l.7,1.15a82.16,82.16,0,0,1,7,15.43l.3.9A126.31,126.31,0,0,1,386.89,207.07Z" transform="translate(-98.55 -71.04)"/><path class="cls-8" d="M374.21,164.33q-.16.63-.36,1.26a23.66,23.66,0,0,1-6.15,9.78c-3.11,3-6.82,5.47-9.07,9.25-4.89,8.18-2.59,18.08-.3,26.73l-1,0c-1.29-4.87-2.52-9.82-2.54-14.87a24,24,0,0,1,2.76-11.84c2.08-3.72,5.51-6.25,8.6-9.07A23.37,23.37,0,0,0,373,165.18c.2-.66.38-1.33.52-2Z" transform="translate(-98.55 -71.04)"/><path class="cls-8" d="M381.46,180.66a23.35,23.35,0,0,0-11.65,16.56,23.64,23.64,0,0,0,1.91,13.35l-1,.13a24.45,24.45,0,0,1-1.68-5.37,23.81,23.81,0,0,1,3.79-18.13,24.9,24.9,0,0,1,8.31-7.44Z" transform="translate(-98.55 -71.04)"/><path class="cls-1" d="M385.35,201.67a74.46,74.46,0,0,1-33.41,3.45c-.6-.07-.58-1,0-.93a73.83,73.83,0,0,0,33.17-3.43c.57-.2.79.71.22.91Z" transform="translate(-98.55 -71.04)"/><path class="cls-1" d="M351.5,208.63a.37.37,0,0,0,.21,0,.44.44,0,0,0,.3-.53,92.17,92.17,0,0,1-2.73-34,.44.44,0,0,0-.37-.49.43.43,0,0,0-.48.37,93.05,93.05,0,0,0,2.75,34.34A.42.42,0,0,0,351.5,208.63Z" transform="translate(-98.55 -71.04)"/><path class="cls-1" d="M348.08,182.67a.43.43,0,0,0,.43-.69,17.53,17.53,0,0,1-2.91-5.9.43.43,0,0,0-.52-.31.44.44,0,0,0-.32.52,18.23,18.23,0,0,0,3.08,6.23A.45.45,0,0,0,348.08,182.67Z" transform="translate(-98.55 -71.04)"/></g></svg>